<svg xmlns="http://www.w3.org/2000/svg" viewBox="0 0 1024 1024" width="1024" height="1024">
  <rect width="1024" height="1024" fill="#050a2c"/>
  <g transform="translate(0,1024) scale(1,-1)" fill="#71c3e8">
    <path d="M622 872 c-45 -6 -83 -25 -114 -57 -14 -13 -20 -21 -30 -37 -18 -30
-28 -64 -31 -104 -1 -8 -1 -77 -1 -176 0 -176 0 -169 -6 -187 -3 -12 -6 -18
-13 -28 -7 -11 -16 -20 -27 -27 -10 -7 -19 -10 -33 -13 -36 -7 -73 6 -95 34
-20 24 -28 59 -24 92 1 7 2 13 3 13 0 1 3 -1 6 -4 11 -10 21 -17 31 -21 8 -5
21 -9 22 -9 0 0 -2 4 -5 9 -13 23 -23 50 -26 75 -3 19 -2 48 3 68 2 7 6 22 10
30 0 2 0 2 -4 -1 -34 -25 -62 -55 -81 -87 -17 -27 -27 -57 -32 -86 -2 -18 -1
-47 2 -64 4 -18 8 -29 16 -44 9 -19 18 -31 33 -46 27 -28 62 -44 101 -50 74
-9 151 27 192 90 15 23 25 50 29 75 1 5 2 11 3 13 0 2 1 82 1 178 l1 175 2 9
c6 19 13 32 25 46 22 23 54 35 84 31 25 -3 45 -12 62 -30 18 -18 27 -39 30
-67 3 -32 -9 -66 -31 -88 -32 -31 -75 -39 -114 -20 -5 3 -12 7 -16 9 l-6 5 0
-58 0 -58 8 -2 c23 -7 36 -9 59 -9 64 0 123 32 159 86 18 27 30 61 34 95 2 14
2 45 0 58 -3 23 -10 51 -19 70 -25 54 -76 94 -134 108 -21 5 -52 6 -74 4z"/>
  </g>
</svg>